<svg width="101" height="32" viewBox="0 0 101 32" fill="none" xmlns="http://www.w3.org/2000/svg">
<g clip-path="url(#clip0_2151_28392)">
<path d="M25.6832 0.0751953C29.1108 0.0751953 31.8779 2.8538 31.8779 6.29554V8.9755C31.8779 12.4173 29.1108 15.1959 25.6832 15.1959H0.314941V6.29554C0.314941 2.8538 3.0821 0.0751953 6.50966 0.0751953H25.6832Z" fill="#023DFF"/>
<path d="M25.6832 31.7691C29.1108 31.7691 31.8779 28.9905 31.8779 25.5487V22.8687C31.8779 19.4269 29.1108 16.6483 25.6832 16.6483H0.314941V25.5487C0.314941 28.9905 3.0821 31.7691 6.50966 31.7691H25.6832Z" fill="#00BB00"/>
<path d="M41.7315 12.913H45.06C45.8508 12.913 46.465 12.7145 46.8924 12.3175C47.3253 11.9205 47.5389 11.3948 47.5389 10.7403C47.5389 10.0858 47.3199 9.56004 46.8924 9.15232C46.4598 8.7446 45.8508 8.54611 45.06 8.54611H41.7315V12.913ZM41.7315 6.43777H44.36C45.0225 6.43777 45.5515 6.24464 45.9523 5.86374C46.3475 5.48285 46.5453 4.98929 46.5453 4.3938C46.5453 3.79831 46.3475 3.34232 45.9523 2.94533C45.5569 2.54833 45.0225 2.34985 44.36 2.34985H41.7315V6.43777ZM39.2739 15.1876V0.0751953H44.531C45.8614 0.0751953 46.9353 0.472185 47.7527 1.26617C48.57 2.06015 48.9814 3.04726 48.9814 4.2275C48.9814 5.47748 48.5219 6.45386 47.603 7.16737C49.2004 7.86478 49.9965 9.08795 49.9965 10.8476C49.9965 12.1566 49.5318 13.2027 48.6074 13.9967C47.6833 14.7907 46.4918 15.1876 45.0333 15.1876H39.2686H39.2739Z" fill="black"/>
<path d="M56.1673 6.37363C55.5422 6.37363 54.9598 6.5614 54.4096 6.93693C53.8593 7.31247 53.5067 7.88112 53.3518 8.65364H58.9882C58.8761 7.91331 58.5608 7.35002 58.048 6.96375C57.5297 6.57213 56.9046 6.379 56.1727 6.379L56.1673 6.37363ZM56.3597 15.3542C54.8477 15.3542 53.5654 14.8285 52.5129 13.777C51.4604 12.7255 50.9316 11.4218 50.9316 9.86072C50.9316 8.29958 51.4498 6.99594 52.4809 5.94446C53.5121 4.89296 54.7943 4.36723 56.3168 4.36723C57.8396 4.36723 59.17 4.9198 60.1316 6.02494C61.0932 7.13007 61.5312 8.57317 61.4459 10.3435H53.2609C53.3464 11.1965 53.6883 11.8779 54.2921 12.3982C54.8904 12.9186 55.5797 13.1761 56.3597 13.1761C57.5351 13.1761 58.4647 12.7416 59.1592 11.8779L60.8367 13.3263C59.779 14.6729 58.2883 15.3488 56.3651 15.3488L56.3597 15.3542Z" fill="black"/>
<path d="M62.9312 15.1933V4.54427H65.2658V5.67086C65.9443 4.83397 66.8578 4.41551 68.0012 4.41551C68.3698 4.41551 68.6691 4.45307 68.8935 4.52281V6.95303C68.5676 6.80818 68.1562 6.73844 67.6647 6.73844C66.5641 6.73844 65.7627 7.17835 65.2712 8.05816V15.1879H62.9364L62.9312 15.1933Z" fill="black"/>
<path d="M74.3379 6.37363C73.7128 6.37363 73.1304 6.5614 72.5801 6.93693C72.0299 7.31247 71.6773 7.88112 71.5223 8.65364H77.1588C77.0465 7.91331 76.7313 7.35002 76.2184 6.96375C75.7003 6.57213 75.0752 6.379 74.3433 6.379L74.3379 6.37363ZM74.5303 15.3542C73.0183 15.3542 71.736 14.8285 70.6835 13.777C69.631 12.7255 69.1021 11.4218 69.1021 9.86072C69.1021 8.29958 69.6204 6.99594 70.6514 5.94446C71.6825 4.89296 72.9648 4.36723 74.4874 4.36723C76.0102 4.36723 77.3404 4.9198 78.3022 6.02494C79.2638 7.13007 79.7018 8.57317 79.6163 10.3435H71.4315C71.5169 11.1965 71.8589 11.8779 72.4573 12.3982C73.0556 12.9186 73.7448 13.1761 74.5249 13.1761C75.7003 13.1761 76.6298 12.7416 77.3244 11.8779L79.0019 13.3263C77.9442 14.6729 76.4535 15.3488 74.5303 15.3488V15.3542Z" fill="black"/>
<path d="M81.1011 15.193V0.0751953H83.4305V9.39909L87.6725 4.54401H90.5362L86.1018 9.57077L91.0652 15.193H88.1159L83.4305 9.86583V15.193H81.1011Z" fill="black"/>
<path d="M95.5584 6.37363C94.9333 6.37363 94.3511 6.5614 93.8008 6.93693C93.2504 7.31247 92.8978 7.88112 92.7429 8.65364H98.3793C98.2672 7.91331 97.952 7.35002 97.4391 6.96375C96.9208 6.57213 96.2957 6.379 95.5638 6.379L95.5584 6.37363ZM95.7508 15.3542C94.2388 15.3542 92.9567 14.8285 91.9042 13.777C90.8517 12.7255 90.3228 11.4218 90.3228 9.86072C90.3228 8.29958 90.8409 6.99594 91.872 5.94446C92.9032 4.89296 94.1854 4.36723 95.7081 4.36723C97.2307 4.36723 98.5611 4.9198 99.5227 6.02494C100.484 7.13007 100.923 8.57317 100.837 10.3435H92.6522C92.7376 11.1965 93.0794 11.8779 93.6832 12.3982C94.2816 12.9186 94.9708 13.1761 95.7508 13.1761C96.9262 13.1761 97.8558 12.7416 98.5503 11.8779L100.228 13.3263C99.1701 14.6729 97.6796 15.3488 95.7562 15.3488L95.7508 15.3542Z" fill="black"/>
<path d="M41.732 29.4885H45.061C45.8519 29.4885 46.4664 29.2901 46.8938 28.893C47.3266 28.496 47.5404 27.9701 47.5404 27.3154C47.5404 26.6608 47.3214 26.1349 46.8938 25.7272C46.461 25.3194 45.8519 25.1209 45.061 25.1209H41.732V29.4885ZM41.732 23.0121H44.361C45.0237 23.0121 45.5526 22.819 45.9534 22.438C46.3488 22.057 46.5466 21.5635 46.5466 20.9679C46.5466 20.3722 46.3488 19.9161 45.9534 19.5191C45.558 19.122 45.0237 18.9234 44.361 18.9234H41.732V23.0121ZM39.2739 31.7635V16.6484H44.532C45.8626 16.6484 46.9366 17.0456 47.7542 17.8396C48.5719 18.6337 48.9833 19.621 48.9833 20.8014C48.9833 22.0516 48.5236 23.0282 47.6045 23.7419C49.2023 24.4394 49.9985 25.6629 49.9985 27.4227C49.9985 28.732 49.5336 29.7784 48.6091 30.5724C47.6848 31.3665 46.4932 31.7635 45.0343 31.7635H39.2686H39.2739Z" fill="black"/>
<path d="M56.47 29.7622C57.6562 29.7622 58.5753 29.2954 59.2274 28.3564V24.5413C58.5914 23.5916 57.6722 23.114 56.47 23.114C55.5509 23.114 54.7921 23.4306 54.199 24.0584C53.6058 24.6914 53.3067 25.4803 53.3067 26.4299C53.3067 27.3798 53.6058 28.1739 54.199 28.8017C54.7921 29.4349 55.5455 29.7461 56.47 29.7461V29.7622ZM59.2274 31.7689V30.8729C58.4364 31.5811 57.4372 31.9353 56.2402 31.9353C54.7119 31.9353 53.4456 31.404 52.441 30.3363C51.4364 29.2739 50.9341 27.9754 50.9341 26.4408C50.9341 24.9061 51.4364 23.6077 52.441 22.5452C53.4456 21.4828 54.7119 20.9463 56.2402 20.9463C57.4266 20.9463 58.4258 21.3111 59.2274 22.0302V21.1125H61.5625V31.7582H59.2274V31.7689Z" fill="black"/>
<path d="M63.785 31.769V21.1235H66.1203V22.1268C66.8148 21.3434 67.8088 20.957 69.1073 20.957C70.4058 20.957 71.4479 21.3701 72.2226 22.202C73.0028 23.0336 73.3876 24.1282 73.3876 25.491V31.7744H71.0525V25.7701C71.0525 24.976 70.8441 24.3375 70.4272 23.8546C70.0104 23.3716 69.4118 23.1301 68.6371 23.1301C67.4188 23.1301 66.5798 23.7097 66.1149 24.8741V31.7744H63.7798L63.785 31.769Z" fill="black"/>
<path d="M75.4878 31.769V16.6484H77.8229V25.9741L82.0605 21.118H84.9246L80.4894 26.1458L85.4536 31.769H82.504L77.8229 26.4409V31.769H75.4878Z" fill="black"/>
<path d="M25.5071 0.0771493C28.9265 0.0771493 31.6985 2.86055 31.6985 6.29407V8.9653C31.6985 12.3988 28.9265 15.1822 25.5071 15.1822H0.152344L0.152344 6.29405C0.152344 2.86055 2.92428 0.0771483 6.34363 0.0771484L25.5071 0.0771493Z" fill="#023DFF"/>
<path d="M25.5071 31.7535C28.9265 31.7535 31.6985 28.9702 31.6985 25.5365V22.8653C31.6985 19.4318 28.9265 16.6484 25.5071 16.6484H0.152344L0.152344 25.5365C0.152344 28.9702 2.92428 31.7535 6.34363 31.7535H25.5071Z" fill="#00BB00"/>
</g>
<defs>
<clipPath id="clip0_2151_28392">
<rect width="101" height="32" fill="white"/>
</clipPath>
</defs>
</svg>
